# Blender v2.70 (sub 0) OBJ File: 'tube_2.blend'
# www.blender.org
mtllib hole.mtl
g hole_Cube.005
v -12.884277 -2.210936 27.448271
v -12.996836 -2.210936 25.150000
v -12.060993 -2.210936 25.104765
v -11.948437 -2.210936 27.403036
v -12.884277 -1.576232 27.448271
v -12.996836 -1.576232 25.150000
v -12.060993 -1.576232 25.104765
v -11.948437 -1.576232 27.403036
vt 0.548367 0.000200
vt 0.733770 0.000198
vt 0.733770 0.652575
vt 0.652974 0.838545
vt 0.652974 0.653141
vt 0.918609 0.653142
vt 0.000200 0.838544
vt 0.000198 0.653141
vt 0.652577 0.653141
vt 0.999802 0.000198
vt 0.999802 0.185603
vt 0.734167 0.185601
vt 0.274282 0.000198
vt 0.547969 0.000367
vt 0.547969 0.652744
vt 0.273886 0.000198
vt 0.273885 0.652576
vt 0.000198 0.652744
vt 0.548366 0.652574
vt 0.918609 0.838544
vt 0.652577 0.838544
vt 0.734167 0.000199
vt 0.274282 0.652575
vt 0.000199 0.000367
vn -0.998803 0.000000 0.048917
vn -0.048281 0.000000 -0.998834
vn 0.998803 0.000000 -0.048916
vn 0.048277 0.000000 0.998834
vn 0.000000 -1.000000 0.000000
vn 0.000000 1.000000 0.000000
usemtl None
s off
f 6/1/1 2/2/1 1/3/1
f 7/4/2 3/5/2 2/6/2
f 8/7/3 4/8/3 3/9/3
f 5/10/4 1/11/4 4/12/4
f 2/13/5 3/14/5 4/15/5
f 8/16/6 7/17/6 6/18/6
f 5/19/1 6/1/1 1/3/1
f 6/20/2 7/4/2 2/6/2
f 7/21/3 8/7/3 3/9/3
f 8/22/4 5/10/4 4/12/4
f 1/23/5 2/13/5 4/15/5
f 5/24/6 8/16/6 6/18/6
