# Blender v2.70 (sub 0) OBJ File: ''
# www.blender.org
mtllib cube.mtl
g Cube
v 1.000000 1.000000 -1.000000
v 1.000000 -1.000000 -1.000000
v -1.000000 -1.000000 -1.000000
v -1.000000 1.000000 -1.000000
v 1.000000 0.999999 1.000000
v 0.999999 -1.000001 1.000000
v -1.000000 -1.000000 1.000000
v -1.000000 1.000000 1.000000
vt 1.000000 0.500000
vt 1.000000 1.000000
vt 0.500000 1.000000
vt 0.000000 0.500000
vt 0.500000 0.500000
vt 0.000000 0.000000
vt 1.000000 1.500000
vt 0.500000 1.500000
vt 0.000000 1.500000
vt 1.000000 0.000000
vt 0.000000 1.000000
vt 0.500000 0.000000
vn 0.000000 0.000000 -1.000000
vn 0.000000 0.000000 1.000000
vn 1.000000 -0.000001 -0.000000
vn -0.000000 -1.000000 -0.000000
vn -1.000000 0.000000 -0.000000
vn 0.000000 1.000000 0.000000
vn 1.000000 0.000000 0.000000
usemtl Material
s off
f 2/1/1 3/2/1 4/3/1
f 8/4/2 7/5/2 6/3/2
f 1/5/3 5/4/3 6/6/3
f 2/7/4 6/8/4 7/3/4
f 7/3/5 8/8/5 4/9/5
f 1/10/6 4/1/6 8/5/6
f 1/5/1 2/1/1 4/3/1
f 5/11/2 8/4/2 6/3/2
f 2/12/7 1/5/7 6/6/7
f 3/2/4 2/7/4 7/3/4
f 3/11/5 7/3/5 4/9/5
f 5/12/6 1/10/6 8/5/6
