# Blender v2.70 (sub 0) OBJ File: 'curve.blend'
# www.blender.org
mtllib walls.mtl
g wall_Cube.003
v -0.721002 6.587747 -11.060270
v -0.697240 6.441043 -12.139931
v 0.392282 6.455578 -12.117927
v 0.368520 6.602282 -11.038266
v -0.732439 7.667571 -11.207248
v -0.708677 7.520867 -12.286908
v 0.380845 7.535402 -12.264904
v 0.357083 7.682106 -11.185244
vt 0.333333 0.666667
vt 0.000000 0.666667
vt 0.000000 0.333333
vt 0.333333 0.000000
vt 0.666667 0.000000
vt 0.666667 0.333333
vt 0.333333 0.333333
vt 0.666667 0.666667
vt 1.000000 0.333333
vt 0.666667 1.000000
vt 0.000000 0.000000
vt 1.000000 0.666667
vt 0.333333 1.000000
vn -0.999707 -0.013336 -0.020190
vn 0.021803 -0.134610 -0.990659
vn 0.999707 0.013336 0.020190
vn -0.021803 0.134610 0.990659
vn 0.010494 -0.990809 0.134862
vn -0.010494 0.990809 -0.134862
vn 0.021801 -0.134610 -0.990659
vn -0.021801 0.134610 0.990659
vn 0.010494 -0.990809 0.134861
vn -0.010494 0.990809 -0.134861
usemtl None
s off
f 5/1/1 6/2/1 2/3/1
f 7/4/2 3/5/2 2/6/2
f 8/4/3 4/7/3 3/3/3
f 5/7/4 1/6/4 4/8/4
f 2/8/5 3/6/5 4/9/5
f 8/1/6 7/8/6 6/10/6
f 1/7/1 5/1/1 2/3/1
f 6/7/7 7/4/7 2/6/7
f 7/11/3 8/4/3 3/3/3
f 8/1/8 5/7/8 4/8/8
f 1/12/9 2/8/9 4/9/9
f 5/13/10 8/1/10 6/10/10
g wall.001_Cube.002
v 1.886912 -8.257773 -7.757168
v 1.886912 -8.257773 -8.847010
v 2.976753 -8.257773 -8.847010
v 2.976753 -8.257773 -7.757168
v 1.886912 -7.167933 -7.757168
v 1.886912 -7.167933 -8.847010
v 2.976753 -7.167933 -8.847010
v 2.976753 -7.167933 -7.757168
vt 0.000000 0.666667
vt 0.000000 0.333333
vt 0.333333 0.333333
vt 0.333333 0.000000
vt 0.666667 0.000000
vt 0.666667 0.333333
vt 0.666667 0.666667
vt 1.000000 0.333333
vt 0.666667 1.000000
vt 0.333333 1.000000
vt 0.333333 0.666667
vt 0.000000 0.000000
vt 1.000000 0.666667
vn -1.000000 0.000000 0.000000
vn 0.000000 0.000000 -1.000000
vn 1.000000 0.000000 0.000000
vn 0.000000 0.000000 1.000000
vn 0.000000 -1.000000 0.000000
vn 0.000000 1.000000 0.000000
usemtl None
s off
f 14/14/11 10/15/11 9/16/11
f 15/17/12 11/18/12 10/19/12
f 16/17/13 12/16/13 11/15/13
f 13/16/14 9/19/14 12/20/14
f 10/20/15 11/19/15 12/21/15
f 15/20/16 14/22/16 13/23/16
f 13/24/11 14/14/11 9/16/11
f 14/16/12 15/17/12 10/19/12
f 15/25/13 16/17/13 11/15/13
f 16/24/14 13/16/14 12/20/14
f 9/26/15 10/20/15 12/21/15
f 16/24/16 15/20/16 13/23/16
