# Blender v2.70 (sub 0) OBJ File: 'straight.blend'
# www.blender.org
mtllib holes.mtl
g holes.001_Cube.003
v -160.066162 -12.064924 -11.947456
v -160.066162 -12.064924 -19.363567
v -152.650055 -12.064924 -19.363567
v -152.650055 -12.064924 -11.947456
v -160.066162 -4.648815 -11.947456
v -160.066162 -4.648815 -19.363567
v -152.650055 -4.648815 -19.363567
v -152.650055 -4.648815 -11.947456
vt 0.000000 0.500000
vt 0.000000 0.000000
vt 0.333333 0.000000
vt 1.000000 0.500000
vt 1.000000 1.000000
vt 0.666667 1.000000
vt 0.333333 0.500000
vt 0.666667 0.000000
vt 1.000000 0.000000
vt 0.666667 0.500000
vt 0.333333 1.000000
vt 0.000000 1.000000
vn -1.000000 0.000000 0.000000
vn 0.000000 0.000000 -1.000000
vn 1.000000 0.000000 0.000000
vn 0.000000 0.000000 1.000000
vn 0.000000 -1.000000 0.000000
vn 0.000000 1.000000 0.000000
usemtl None
s off
f 6/1/1 2/2/1 1/3/1
f 7/4/2 3/5/2 2/6/2
f 8/7/3 4/3/3 3/8/3
f 5/9/4 1/4/4 4/10/4
f 2/1/5 3/7/5 4/11/5
f 7/6/6 6/11/6 5/7/6
f 5/7/1 6/1/1 1/3/1
f 6/10/2 7/4/2 2/6/2
f 7/10/3 8/7/3 3/8/3
f 8/8/4 5/9/4 4/10/4
f 1/12/5 2/1/5 4/11/5
f 8/10/6 7/6/6 5/7/6
g holes_Cube.002
v -66.984848 -12.064924 -11.947456
v -66.984848 -12.064924 -19.363567
v -59.568737 -12.064924 -19.363567
v -59.568737 -12.064924 -11.947456
v -66.984848 -4.648815 -11.947456
v -66.984848 -4.648815 -19.363567
v -59.568737 -4.648815 -19.363567
v -59.568737 -4.648815 -11.947456
vt 0.000000 0.500000
vt 0.000000 0.000000
vt 0.333333 0.000000
vt 1.000000 0.500000
vt 1.000000 1.000000
vt 0.666667 1.000000
vt 0.333333 0.500000
vt 0.666667 0.000000
vt 1.000000 0.000000
vt 0.666667 0.500000
vt 0.333333 1.000000
vt 0.000000 1.000000
vn -1.000000 0.000000 0.000000
vn 0.000000 0.000000 -1.000000
vn 1.000000 0.000000 0.000000
vn 0.000000 0.000000 1.000000
vn 0.000000 -1.000000 0.000000
vn 0.000000 1.000000 0.000000
usemtl None
s off
f 14/13/7 10/14/7 9/15/7
f 15/16/8 11/17/8 10/18/8
f 16/19/9 12/15/9 11/20/9
f 13/21/10 9/16/10 12/22/10
f 10/13/11 11/19/11 12/23/11
f 15/18/12 14/23/12 13/19/12
f 13/19/7 14/13/7 9/15/7
f 14/22/8 15/16/8 10/18/8
f 15/22/9 16/19/9 11/20/9
f 16/20/10 13/21/10 12/22/10
f 9/24/11 10/13/11 12/23/11
f 16/22/12 15/18/12 13/19/12
