# Blender v2.70 (sub 0) OBJ File: 'tube_2.blend'
# www.blender.org
mtllib tube_2.mtl
g Cube_Cube.001
v -0.170095 -0.170095 0.406413
v -0.170095 -0.170095 -0.406413
v 0.170095 -0.170095 -0.406413
v 0.170095 -0.170095 0.406413
v -0.170095 0.170095 0.406413
v -0.170095 0.170095 -0.406413
v 0.170095 0.170095 -0.406413
v 0.170095 0.170095 0.406413
vt 0.500000 0.704957
vt 0.250000 0.704957
vt 0.250000 0.000000
vt 0.500000 1.000000
vt 0.000000 0.000000
vt 0.750000 0.704957
vt 0.750000 1.000000
vt 1.000000 0.704957
vt 0.750000 0.000000
vt 0.500000 0.000000
vt 0.250000 1.000000
vt 0.000000 0.704957
vt 1.000000 0.000000
vn -1.000000 0.000000 0.000000
vn 0.000000 0.000000 -1.000000
vn 1.000000 0.000000 0.000000
vn 0.000000 0.000000 1.000000
vn 0.000000 -1.000000 0.000000
vn 0.000000 1.000000 0.000000
usemtl None
s off
f 6/1/1 2/2/1 1/3/1
f 7/2/2 3/1/2 2/4/2
f 8/5/3 4/3/3 3/2/3
f 5/1/4 1/6/4 4/7/4
f 2/8/5 3/6/5 4/9/5
f 7/10/6 6/9/6 5/6/6
f 5/10/1 6/1/1 1/3/1
f 6/11/2 7/2/2 2/4/2
f 7/12/3 8/5/3 3/2/3
f 8/4/4 5/1/4 4/7/4
f 1/13/5 2/8/5 4/9/5
f 8/1/6 7/10/6 5/6/6
