# Blender v2.69 (sub 0) OBJ File: ''
# www.blender.org
mtllib playerwall.mtl
g playerWall_Cube.006
v -0.011408 -0.110819 -0.263902
v 0.011408 -0.110819 -0.263902
v 0.011408 -0.110819 0.263902
v 0.012822 0.112456 0.263902
v 0.012822 -0.103505 0.263902
v 0.012822 -0.103505 -0.263902
v 0.011408 0.118675 -0.263902
v -0.011408 0.118675 -0.263902
v -0.011408 0.118675 0.263902
v 0.011408 0.112456 -0.267931
v 0.011408 -0.103505 -0.267931
v -0.011408 -0.103505 -0.267931
v -0.011408 0.112456 0.267931
v -0.011408 -0.103505 0.267931
v 0.011408 -0.103505 0.267931
v -0.011408 -0.110819 0.263902
v -0.012822 -0.103505 0.263902
v -0.012822 -0.103505 -0.263902
v -0.012822 0.112456 0.263902
v -0.012822 0.112456 -0.263902
v -0.011408 0.112456 -0.267931
v 0.012822 0.112456 -0.263902
v 0.011408 0.118675 0.263902
v 0.011408 0.112456 0.267931
vt 0.957318 0.892933
vt 0.923099 0.892933
vt 0.923099 0.008924
vt 0.031678 0.015168
vt 0.425334 0.015168
vt 0.425334 0.900203
vt 0.888839 0.008924
vt 0.923058 0.008924
vt 0.923058 0.892933
vt 0.957294 0.474584
vt 0.957294 0.033818
vt 0.991643 0.033818
vt 0.957294 0.966182
vt 0.957294 0.525416
vt 0.991643 0.525416
vt 0.448615 0.015168
vt 0.471887 0.008411
vt 0.471887 0.015168
vt 0.471887 0.906959
vt 0.448615 0.900203
vt 0.471887 0.900203
vt 0.425334 0.906959
vt 0.448606 0.900203
vt 0.425333 0.008411
vt 0.448605 0.015168
vt 0.865542 0.015168
vt 0.865542 0.008411
vt 0.888814 0.015168
vt 0.865542 0.900203
vt 0.888814 0.900203
vt 0.865542 0.906959
vt 0.031678 0.906959
vt 0.008406 0.900203
vt 0.031678 0.900203
vt 0.008406 0.015168
vt 0.031678 0.008411
vt 0.957294 0.500641
vt 0.991643 0.474584
vt 0.991643 0.007761
vt 0.957294 0.992239
vt 0.991643 0.966182
vt 0.991643 0.499359
vt 0.957318 0.008924
vt 0.888839 0.892933
vt 0.991643 0.500641
vt 0.957294 0.007761
vt 0.991643 0.992239
vt 0.957294 0.499359
vn 0.000000 -1.000000 -0.000000
vn 1.000000 0.000000 0.000000
vn 0.000000 1.000000 0.000000
vn 0.000000 0.000000 -1.000000
vn 0.000000 -0.000000 1.000000
vn -0.928258 -0.179459 0.325778
vn -0.928258 -0.179459 -0.325778
vn 0.928258 -0.179459 -0.325778
vn 0.928258 -0.179459 0.325778
vn -0.922584 0.209767 0.323786
vn -0.922582 0.209768 -0.323789
vn 0.922582 0.209768 -0.323789
vn 0.922584 0.209767 0.323786
vn -0.943578 -0.000000 0.331150
vn -0.975113 0.221709 0.000000
vn -0.943578 0.000000 -0.331150
vn -0.981820 -0.189813 -0.000000
vn 0.000000 0.543721 -0.839266
vn 0.943576 0.000000 -0.331155
vn 0.000000 -0.482498 -0.875897
vn 0.975113 0.221709 0.000000
vn 0.943578 -0.000000 0.331150
vn 0.981820 -0.189813 -0.000000
vn 0.000000 0.543722 0.839265
vn 0.000000 -0.482498 0.875897
vn -1.000000 0.000000 0.000000
vn -0.943576 -0.000000 0.331155
vn -0.943576 0.000000 -0.331155
vn 0.000000 0.543722 -0.839265
vn 0.943578 0.000000 -0.331150
vn 0.943576 -0.000000 0.331155
usemtl PlayerWall
s off
f 1/1/1 2/2/1 3/3/1
f 4/4/2 5/5/2 6/6/2
f 7/7/3 8/8/3 9/9/3
f 10/10/4 11/11/4 12/12/4
f 13/13/5 14/14/5 15/15/5
f 16/16/6 14/17/6 17/18/6
f 12/19/7 1/20/7 18/21/7
f 11/22/8 6/6/8 2/23/8
f 5/5/9 15/24/9 3/25/9
f 19/26/10 13/27/10 9/28/10
f 20/29/11 8/30/11 21/31/11
f 10/32/12 7/33/12 22/34/12
f 4/4/13 23/35/13 24/36/13
f 13/27/14 19/26/14 17/18/14
f 8/30/15 20/29/15 19/26/15
f 12/19/16 18/21/16 20/29/16
f 16/16/17 17/18/17 18/21/17
f 7/37/18 10/10/18 21/38/18
f 6/6/19 11/22/19 10/32/19
f 1/39/20 12/12/20 11/11/20
f 7/33/21 23/35/21 4/4/21
f 15/24/22 5/5/22 4/4/22
f 2/23/23 6/6/23 5/5/23
f 9/40/24 13/13/24 24/41/24
f 3/42/25 15/15/25 14/14/25
f 20/29/26 18/21/26 17/18/26
f 16/43/1 1/1/1 3/3/1
f 22/34/2 4/4/2 6/6/2
f 23/44/3 7/7/3 9/9/3
f 21/38/4 10/10/4 12/12/4
f 24/41/5 13/13/5 15/15/5
f 14/17/27 13/27/27 17/18/27
f 9/28/15 8/30/15 19/26/15
f 21/31/28 12/19/28 20/29/28
f 1/20/17 16/16/17 18/21/17
f 8/45/29 7/37/29 21/38/29
f 22/34/30 6/6/30 10/32/30
f 2/46/20 1/39/20 11/11/20
f 22/34/21 7/33/21 4/4/21
f 24/36/31 15/24/31 4/4/31
f 3/25/23 2/23/23 5/5/23
f 23/47/24 9/40/24 24/41/24
f 16/48/25 3/42/25 14/14/25
f 19/26/26 20/29/26 17/18/26
