# Blender v2.70 (sub 0) OBJ File: 'PipePanic.blend'
# www.blender.org
mtllib BoostBoundingBoxes.mtl
g BoostBoundingBoxes.001_Cube.014
v 358.718018 -9.024407 49.860912
v 361.348450 -9.024407 46.445854
v 365.349060 -9.024407 49.527287
v 362.718628 -9.024407 52.942345
v 358.718018 -7.538016 49.860912
v 361.348450 -7.538016 46.445854
v 365.349060 -7.538016 49.527287
v 362.718628 -7.538016 52.942345
vn -0.792234 0.000000 -0.610217
vn 0.610212 0.000000 -0.792238
vn 0.792235 0.000000 0.610216
vn -0.610212 0.000000 0.792238
vn 0.000000 -1.000000 0.000000
vn 0.000000 1.000000 0.000000
vn -0.792236 0.000000 -0.610214
vn 0.610213 0.000000 -0.792237
vn 0.792236 0.000000 0.610214
vn -0.610215 0.000000 0.792236
usemtl None
s off
f 6//1 2//1 1//1
f 7//2 3//2 2//2
f 8//3 4//3 3//3
f 5//4 1//4 4//4
f 1//5 2//5 3//5
f 7//6 6//6 5//6
f 5//7 6//7 1//7
f 6//8 7//8 2//8
f 7//9 8//9 3//9
f 8//10 5//10 4//10
f 4//5 1//5 3//5
f 8//6 7//6 5//6
g BoostBoundingBoxes_Cube.013
v -0.158077 -9.024407 2.155326
v -0.158077 -9.024407 -2.155326
v 4.891681 -9.024407 -2.155326
v 4.891681 -9.024407 2.155326
v -0.158077 -7.538016 2.155326
v -0.158077 -7.538016 -2.155326
v 4.891681 -7.538016 -2.155326
v 4.891681 -7.538016 2.155326
vn -1.000000 0.000000 0.000000
vn 0.000000 0.000000 -1.000000
vn 1.000000 0.000000 0.000000
vn 0.000000 0.000000 1.000000
vn 0.000000 -1.000000 0.000000
vn 0.000000 1.000000 0.000000
usemtl None
s off
f 14//11 10//11 9//11
f 15//12 11//12 10//12
f 16//13 12//13 11//13
f 13//14 9//14 12//14
f 10//15 11//15 12//15
f 15//16 14//16 13//16
f 13//11 14//11 9//11
f 14//12 15//12 10//12
f 15//13 16//13 11//13
f 16//14 13//14 12//14
f 9//15 10//15 12//15
f 16//16 15//16 13//16
