# Blender v2.70 (sub 0) OBJ File: 'Aztec2.blend'
# www.blender.org
mtllib WallBoundingBoxes.mtl
g WallBoundingBox.012_Circle.033
v -49.244385 -0.025654 9.701439
v -49.632130 0.003590 10.981283
v -51.056107 -0.474031 10.655165
v -50.632366 -0.509668 9.252418
v -49.693790 1.432877 9.517035
v -50.090111 1.464226 10.838035
v -51.513351 0.986450 10.509101
v -51.080719 0.948708 9.065057
vt 0.666667 1.000000
vt 0.333334 1.000000
vt 0.333334 0.666667
vt 0.333334 0.333333
vt 0.333334 0.000000
vt 0.666667 0.000000
vt 0.666667 0.333333
vt 1.000000 0.000000
vt 0.666667 0.666667
vt 0.000000 0.333333
vt 0.000000 0.000000
vt 0.000000 0.666667
vt 0.000000 0.333334
vt 0.333333 0.333334
vt 1.000000 0.333333
vt 0.333333 0.666667
vn 0.911199 0.312079 0.268929
vn -0.231105 0.024918 0.972610
vn -0.911617 -0.314293 -0.264904
vn 0.316791 -0.022278 -0.948234
vn 0.293209 -0.949638 0.110530
vn -0.293247 0.949628 -0.110515
vn 0.911276 0.314411 0.265936
vn -0.232295 0.022528 0.972384
vn -0.911609 -0.312153 -0.267448
vn 0.315542 -0.024859 -0.948586
vn 0.294362 -0.948986 0.113030
vn -0.294446 0.948962 -0.113017
usemtl WallBox
s off
f 6/1/1 2/2/1 1/3/1
f 7/4/2 3/5/2 2/6/2
f 7/7/3 8/6/3 4/8/3
f 8/7/4 5/9/4 1/3/4
f 1/10/5 2/11/5 3/5/5
f 7/12/6 6/13/6 5/14/6
f 5/9/7 6/1/7 1/3/7
f 6/7/8 7/4/8 2/6/8
f 3/15/9 7/7/9 4/8/9
f 4/4/10 8/7/10 1/3/10
f 4/14/11 1/10/11 3/5/11
f 8/16/12 7/12/12 5/14/12
g WallBoundingBox.011_Circle.032
v -4.637529 -39.752842 15.392056
v -4.070273 -41.057610 14.738352
v -4.434465 -41.859085 15.998308
v -5.006871 -40.545048 16.656374
v -3.251597 -39.453033 15.984881
v -2.688650 -40.746788 15.335548
v -3.052984 -41.547997 16.595629
v -3.621092 -40.244934 17.249338
vt 0.666667 0.666667
vt 0.666667 1.000000
vt 0.333334 1.000000
vt 0.333334 0.333333
vt 0.333334 0.000000
vt 0.666667 0.000000
vt 1.000000 0.000000
vt 1.000000 0.333333
vt 0.666667 0.333333
vt 0.333334 0.666667
vt 0.000000 0.333333
vt 0.000000 0.000000
vt 0.000000 0.666667
vt 0.000000 0.333334
vt 0.333333 0.333334
vt 0.333333 0.666667
vn 0.239121 0.516665 -0.822118
vn 0.368584 -0.828924 -0.420751
vn -0.239979 -0.516254 0.822126
vn -0.359205 0.834564 0.417702
vn -0.900826 -0.198062 -0.386374
vn 0.900824 0.198046 0.386385
vn 0.239989 0.516236 -0.822135
vn 0.368343 -0.829078 -0.420658
vn -0.239114 -0.516678 0.822112
vn -0.359478 0.834394 0.417807
vn -0.900395 -0.198277 -0.387266
vn 0.900392 0.198266 0.387280
usemtl WallBox
s off
f 13/17/13 14/18/13 10/19/13
f 15/20/14 11/21/14 10/22/14
f 16/22/15 12/23/15 11/24/15
f 16/25/16 13/17/16 9/26/16
f 9/27/17 10/28/17 11/21/17
f 15/29/18 14/30/18 13/31/18
f 9/26/19 13/17/19 10/19/19
f 14/25/20 15/20/20 10/22/20
f 15/25/21 16/22/21 11/24/21
f 12/20/22 16/25/22 9/26/22
f 12/31/23 9/27/23 11/21/23
f 16/32/24 15/29/24 13/31/24
g WallBoundingBox.010_Circle.031
v 6.060539 -59.919579 3.655150
v 6.927819 -60.988228 2.863032
v 6.719349 -62.015686 3.987081
v 5.834343 -60.926178 4.794615
v 7.336524 -59.417953 4.350809
v 8.190001 -60.469723 3.570805
v 7.981011 -61.496571 4.695308
v 7.109887 -60.424004 5.490659
vt 0.666667 0.666667
vt 0.666667 1.000000
vt 0.333334 1.000000
vt 0.666667 0.333333
vt 0.333334 0.333333
vt 0.333334 0.000000
vt 0.666667 0.000000
vt 1.000000 0.000000
vt 1.000000 0.333333
vt 0.333334 0.666667
vt 0.000000 0.333333
vt 0.000000 0.000000
vt 0.000000 0.666667
vt 0.000000 0.333334
vt 0.333333 0.333334
vt 0.333333 0.666667
vn 0.141508 0.661205 -0.736739
vn 0.554862 -0.663113 -0.502403
vn -0.141719 -0.661173 0.736727
vn -0.538174 0.681815 0.495477
vn -0.825621 -0.331764 -0.456380
vn 0.825715 0.331643 0.456298
vn 0.141755 0.661145 -0.736745
vn 0.554451 -0.662914 -0.503120
vn -0.141491 -0.661228 0.736721
vn -0.538527 0.681984 0.494860
vn -0.825330 -0.331757 -0.456911
vn 0.825422 0.331639 0.456831
usemtl WallBox
s off
f 21/33/25 22/34/25 18/35/25
f 22/36/26 23/37/26 19/38/26
f 24/39/27 20/40/27 19/41/27
f 21/33/28 17/42/28 20/37/28
f 17/43/29 18/44/29 19/38/29
f 23/45/30 22/46/30 21/47/30
f 17/42/31 21/33/31 18/35/31
f 18/39/32 22/36/32 19/38/32
f 23/36/33 24/39/33 19/41/33
f 24/36/34 21/33/34 20/37/34
f 20/47/35 17/43/35 19/38/35
f 24/48/36 23/45/36 21/47/36
g WallBoundingBox.009_Circle.030
v 24.739765 -69.434479 -11.575779
v 26.143236 -69.008011 -12.427621
v 26.845539 -70.301231 -11.983832
v 25.396259 -70.742104 -11.104980
v 25.298431 -68.709312 -10.340825
v 26.645063 -68.300026 -11.158948
v 27.346153 -69.593636 -10.714461
v 25.953320 -70.017387 -9.869037
vt 0.666667 0.666667
vt 0.666667 1.000000
vt 0.333334 1.000000
vt 0.666667 0.333333
vt 0.333334 0.333333
vt 0.333334 0.000000
vt 0.666667 0.000000
vt 1.000000 0.000000
vt 1.000000 0.333333
vt 0.333334 0.666667
vt 0.000000 0.333333
vt 0.000000 0.000000
vt 0.000000 0.666667
vt 0.000000 0.333334
vt 0.333333 0.333334
vt 0.333333 0.666667
vn -0.439167 0.847173 -0.299050
vn 0.828161 0.282504 -0.484088
vn 0.439026 -0.847284 0.298941
vn -0.827945 -0.231810 0.510658
vn -0.350010 -0.468450 -0.811201
vn 0.350320 0.468530 0.811021
vn -0.438939 0.847315 -0.298980
vn 0.827424 0.282862 -0.485137
vn 0.439231 -0.847153 0.299013
vn -0.828938 -0.231332 0.509261
vn -0.349850 -0.467861 -0.811610
vn 0.350147 0.467959 0.811426
usemtl WallBox
s off
f 29/49/37 30/50/37 26/51/37
f 30/52/38 31/53/38 27/54/38
f 32/55/39 28/56/39 27/57/39
f 29/49/40 25/58/40 28/53/40
f 25/59/41 26/60/41 27/54/41
f 31/61/42 30/62/42 29/63/42
f 25/58/43 29/49/43 26/51/43
f 26/55/44 30/52/44 27/54/44
f 31/52/45 32/55/45 27/57/45
f 32/52/46 29/49/46 28/53/46
f 28/63/47 25/59/47 27/54/47
f 32/64/48 31/61/48 29/63/48
g WallBoundingBox.008_Circle.029
v 39.120243 -61.699440 -18.894188
v 40.304287 -60.702141 -19.326029
v 41.358566 -61.782215 -19.035561
v 40.147717 -62.802761 -18.594915
v 39.237877 -61.197144 -17.446329
v 40.397572 -60.219898 -17.869862
v 41.451077 -61.300632 -17.579140
v 40.264545 -62.301109 -17.146784
vt 0.666667 0.666667
vt 0.666667 1.000000
vt 0.333334 1.000000
vt 0.333334 0.333333
vt 0.333334 0.000000
vt 0.666667 0.000000
vt 1.000000 0.000000
vt 1.000000 0.333333
vt 0.333334 0.666667
vt 0.000000 0.333333
vt 0.000000 0.000000
vt 0.000000 0.666667
vt 0.000000 0.333334
vt 0.333333 0.333334
vt 0.666667 0.333333
vt 0.333333 0.666667
vn -0.672571 0.714294 -0.193474
vn 0.725189 0.638689 -0.257250
vn 0.672483 -0.714441 0.193238
vn -0.739800 -0.614782 0.273386
vn -0.071556 -0.323583 -0.943490
vn 0.071750 0.323726 0.943426
vn -0.672350 0.714557 -0.193268
vn 0.725616 0.637992 -0.257775
vn 0.672687 -0.714198 0.193425
vn -0.740313 -0.614513 0.272600
vn -0.071545 -0.322639 -0.943814
vn 0.071725 0.322776 0.943754
usemtl WallBox
s off
f 37/65/49 38/66/49 34/67/49
f 39/68/50 35/69/50 34/70/50
f 40/70/51 36/71/51 35/72/51
f 37/65/52 33/73/52 36/68/52
f 33/74/53 34/75/53 35/69/53
f 39/76/54 38/77/54 37/78/54
f 33/73/55 37/65/55 34/67/55
f 38/79/56 39/68/56 34/70/56
f 39/79/57 40/70/57 35/72/57
f 40/79/58 37/65/58 36/68/58
f 36/78/59 33/74/59 35/69/59
f 40/80/60 39/76/60 37/78/60
g WallBoundingBox.007_Circle.028
v 45.230965 -55.939129 -21.151550
v 46.244667 -54.775620 -21.463131
v 47.433876 -55.716450 -21.212067
v 46.396496 -56.907417 -20.894035
v 45.239750 -55.534885 -19.668900
v 46.239178 -54.386303 -19.976395
v 47.427734 -55.327888 -19.725155
v 46.404606 -56.503922 -19.411198
vt 0.666667 1.000000
vt 0.333334 1.000000
vt 0.333334 0.666667
vt 0.333334 0.333333
vt 0.333334 0.000000
vt 0.666667 0.000000
vt 0.666667 0.333333
vt 1.000000 0.000000
vt 0.666667 0.666667
vt 0.000000 0.333333
vt 0.000000 0.000000
vt 0.000000 0.666667
vt 0.000000 0.333334
vt 0.333333 0.333334
vt 1.000000 0.333333
vt 0.333333 0.666667
vn -0.765103 0.622206 -0.165759
vn 0.633523 0.749221 -0.193176
vn 0.765498 -0.621912 0.165041
vn -0.652367 -0.730220 0.202966
vn -0.000426 -0.258334 -0.966056
vn 0.000403 0.258281 0.966070
vn -0.765502 0.621910 -0.165028
vn 0.634032 0.748655 -0.193698
vn 0.765121 -0.622187 0.165754
vn -0.651868 -0.730816 0.202427
vn -0.000507 -0.257583 -0.966256
vn 0.000478 0.257544 0.966267
usemtl WallBox
s off
f 46/81/61 42/82/61 41/83/61
f 47/84/62 43/85/62 42/86/62
f 47/87/63 48/86/63 44/88/63
f 48/87/64 45/89/64 41/83/64
f 41/90/65 42/91/65 43/85/65
f 47/92/66 46/93/66 45/94/66
f 45/89/67 46/81/67 41/83/67
f 46/87/68 47/84/68 42/86/68
f 43/95/69 47/87/69 44/88/69
f 44/84/70 48/87/70 41/83/70
f 44/94/71 41/90/71 43/85/71
f 48/96/72 47/92/72 45/94/72
g WallBoundingBox.006_Circle.027
v 56.762299 -24.284582 -33.514858
v 56.970215 -23.553753 -34.671623
v 58.486320 -23.586174 -34.420677
v 58.280502 -24.311144 -33.276268
v 56.653748 -22.998055 -32.681137
v 56.868038 -22.237108 -33.884956
v 58.384216 -22.269299 -33.634491
v 58.172039 -23.024307 -32.443123
vt 0.666667 0.666667
vt 0.666667 1.000000
vt 0.333334 1.000000
vt 0.666667 0.333333
vt 0.333334 0.333333
vt 0.333334 0.000000
vt 0.666667 0.000000
vt 1.000000 0.000000
vt 1.000000 0.333333
vt 0.333334 0.666667
vt 0.000000 0.333333
vt 0.000000 0.000000
vt 0.000000 0.666667
vt 0.000000 0.333334
vt 0.333333 0.333334
vt 0.333333 0.666667
vn -0.986479 0.020594 -0.162588
vn 0.150320 0.515350 -0.843693
vn 0.986346 -0.022481 0.163144
vn -0.139312 -0.546778 0.825606
vn 0.068582 -0.848938 -0.524024
vn -0.068592 0.848765 0.524302
vn -0.986355 0.022466 -0.163093
vn 0.150637 0.515636 -0.843462
vn 0.986472 -0.020604 0.162628
vn -0.138920 -0.546432 0.825902
vn 0.067696 -0.848282 -0.525199
vn -0.067704 0.848136 0.525434
usemtl WallBox
s off
f 53/97/73 54/98/73 50/99/73
f 54/100/74 55/101/74 51/102/74
f 56/103/75 52/104/75 51/105/75
f 53/97/76 49/106/76 52/101/76
f 49/107/77 50/108/77 51/102/77
f 55/109/78 54/110/78 53/111/78
f 49/106/79 53/97/79 50/99/79
f 50/103/80 54/100/80 51/102/80
f 55/100/81 56/103/81 51/105/81
f 56/100/82 53/97/82 52/101/82
f 52/111/83 49/107/83 51/102/83
f 56/112/84 55/109/84 53/111/84
g WallBoundingBox.005_Circle.026
v 46.304924 -19.470554 -94.267570
v 44.863712 -19.570789 -94.768074
v 45.349518 -19.877399 -96.193817
v 46.841385 -19.773756 -95.675674
v 46.307293 -17.967833 -94.590408
v 44.874161 -18.067223 -95.087318
v 45.361271 -18.373755 -96.512627
v 46.845104 -18.270927 -95.998009
vt 0.666667 1.000000
vt 0.333334 1.000000
vt 0.333334 0.666667
vt 0.666667 0.333333
vt 0.333334 0.333333
vt 0.333334 0.000000
vt 0.666667 0.000000
vt 1.000000 0.000000
vt 1.000000 0.333333
vt 0.666667 0.666667
vt 0.000000 0.333333
vt 0.000000 0.000000
vt 0.333333 0.666667
vt 0.000000 0.666667
vt 0.000000 0.333334
vt 0.333333 0.333334
vn -0.333833 0.197999 0.921603
vn -0.948431 -0.058637 -0.311514
vn 0.333844 -0.198475 -0.921496
vn 0.936784 0.072083 0.342403
vn -0.004487 -0.977952 0.208781
vn 0.004625 0.977959 -0.208745
vn -0.333340 0.198531 0.921667
vn -0.948717 -0.059331 -0.310510
vn 0.333412 -0.198040 -0.921747
vn 0.937110 0.070977 0.341740
vn -0.004592 -0.977942 0.208828
vn 0.004585 0.977942 -0.208825
usemtl WallBox
s off
f 62/113/85 58/114/85 57/115/85
f 62/116/86 63/117/86 59/118/86
f 64/119/87 60/120/87 59/121/87
f 64/116/88 61/122/88 57/115/88
f 57/123/89 58/124/89 59/118/89
f 64/125/90 63/126/90 62/127/90
f 61/122/91 62/113/91 57/115/91
f 58/119/92 62/116/92 59/118/92
f 63/116/93 64/119/93 59/121/93
f 60/117/94 64/116/94 57/115/94
f 60/128/95 57/123/95 59/118/95
f 61/128/96 64/125/96 62/127/96
g WallBoundingBox.004_Circle.025
v 21.788015 -20.228422 -97.716393
v 20.284258 -20.174290 -97.647842
v 20.182468 -20.474216 -99.151863
v 21.719267 -20.530121 -99.222000
v 21.828941 -18.722218 -98.019928
v 20.321461 -18.667864 -97.951042
v 20.220509 -18.967838 -99.455093
v 21.761003 -19.023962 -99.525566
vt 0.666667 1.000000
vt 0.333334 1.000000
vt 0.333334 0.666667
vt 0.333334 0.333333
vt 0.333334 0.000000
vt 0.666667 0.000000
vt 0.666667 0.333333
vt 1.000000 0.000000
vt 0.666667 0.666667
vt 0.000000 0.333333
vt 0.000000 0.000000
vt 0.000000 0.666667
vt 0.000000 0.333334
vt 0.333333 0.333334
vt 1.000000 0.333333
vt 0.333333 0.666667
vn 0.051689 0.195823 0.979276
vn -0.997497 0.037283 0.060074
vn -0.051930 -0.195927 -0.979243
vn 0.998644 -0.034916 -0.038604
vn -0.026290 -0.980009 0.197208
vn 0.026321 0.980005 -0.197223
vn 0.051832 0.195934 0.979246
vn -0.997547 0.036640 0.059647
vn -0.051822 -0.195816 -0.979270
vn 0.998654 -0.035324 -0.037981
vn -0.026632 -0.979925 0.197578
vn 0.026661 0.979922 -0.197589
usemtl WallBox
s off
f 70/129/97 66/130/97 65/131/97
f 71/132/98 67/133/98 66/134/98
f 71/135/99 72/134/99 68/136/99
f 69/137/100 65/131/100 68/132/100
f 65/138/101 66/139/101 67/133/101
f 71/140/102 70/141/102 69/142/102
f 69/137/103 70/129/103 65/131/103
f 70/135/104 71/132/104 66/134/104
f 67/143/105 71/135/105 68/136/105
f 72/135/106 69/137/106 68/132/106
f 68/142/107 65/138/107 67/133/107
f 72/144/108 71/140/108 69/142/108
g WallBoundingBox.003_Circle.024
v 0.878779 -20.503426 -90.721046
v 0.269838 -20.613045 -89.429482
v -1.103820 -20.962757 -90.023247
v -0.428985 -20.840668 -91.454262
v 0.521676 -19.009062 -90.775513
v -0.088435 -19.119419 -89.482422
v -1.461222 -19.469110 -90.079575
v -0.784213 -19.345936 -91.512177
vt 0.666667 0.666667
vt 0.666667 1.000000
vt 0.333334 1.000000
vt 0.333334 0.333333
vt 0.333334 0.000000
vt 0.666667 0.000000
vt 1.000000 0.000000
vt 1.000000 0.333333
vt 0.666667 0.333333
vt 0.333334 0.666667
vt 0.000000 0.000000
vt 0.333333 0.333334
vt 0.333333 0.666667
vt 0.000000 0.666667
vt 0.000000 0.333334
vt 0.000000 0.333333
vn 0.873683 0.224858 0.431412
vn -0.383829 -0.057090 0.921638
vn -0.873881 -0.224393 -0.431254
vn 0.473724 0.081241 -0.876918
vn 0.235220 -0.971538 0.028037
vn -0.235414 0.971500 -0.027721
vn 0.873922 0.224550 0.431089
vn -0.385344 -0.059789 0.920834
vn -0.873272 -0.225247 -0.432042
vn 0.472122 0.078183 -0.878059
vn 0.234747 -0.971647 0.028212
vn -0.234901 0.971619 -0.027910
usemtl WallBox
s off
f 77/145/109 78/146/109 74/147/109
f 79/148/110 75/149/110 74/150/110
f 80/150/111 76/151/111 75/152/111
f 80/153/112 77/145/112 73/154/112
f 74/155/113 75/149/113 76/156/113
f 80/157/114 79/158/114 78/159/114
f 73/154/115 77/145/115 74/147/115
f 78/153/116 79/148/116 74/150/116
f 79/153/117 80/150/117 75/152/117
f 76/148/118 80/153/118 73/154/118
f 73/160/119 74/155/119 76/156/119
f 77/156/120 80/157/120 78/159/120
g WallBoundingBox.002_Circle.023
v -0.780607 -18.715805 -66.099876
v -0.584725 -18.386524 -64.590202
v -2.072933 -18.666039 -64.326187
v -2.269959 -18.999313 -65.846680
v -1.108327 -17.239563 -66.376099
v -0.912240 -16.912144 -64.876091
v -2.400472 -17.191761 -64.612373
v -2.597713 -17.523191 -66.123291
vt 0.666667 0.666667
vt 0.666667 1.000000
vt 0.333334 1.000000
vt 0.666667 0.333333
vt 0.333334 0.333333
vt 0.333334 0.000000
vt 0.666667 0.000000
vt 1.000000 0.000000
vt 1.000000 0.333333
vt 0.333334 0.666667
vt 0.000000 0.333333
vt 0.000000 0.000000
vt 0.000000 0.666667
vt 0.000000 0.333334
vt 0.333333 0.333334
vt 0.333333 0.666667
vn 0.968909 0.182928 -0.166589
vn 0.130680 0.216831 0.967423
vn -0.968823 -0.184031 0.165878
vn -0.125058 -0.209228 -0.969837
vn 0.212580 -0.960078 0.181824
vn -0.212599 0.960083 -0.181774
vn 0.968826 0.184042 -0.165847
vn 0.130940 0.216672 0.967423
vn -0.968907 -0.182920 0.166611
vn -0.124738 -0.209434 -0.969834
vn 0.213731 -0.959665 0.182653
vn -0.213748 0.959670 -0.182608
usemtl WallBox
s off
f 85/161/121 86/162/121 82/163/121
f 86/164/122 87/165/122 83/166/122
f 88/167/123 84/168/123 83/169/123
f 85/161/124 81/170/124 84/165/124
f 81/171/125 82/172/125 83/166/125
f 87/173/126 86/174/126 85/175/126
f 81/170/127 85/161/127 82/163/127
f 82/167/128 86/164/128 83/166/128
f 87/164/129 88/167/129 83/169/129
f 88/164/130 85/161/130 84/165/130
f 84/175/131 81/171/131 83/166/131
f 88/176/132 87/173/132 85/175/132
g WallBoundingBox.001_Circle.022
v 1.827775 -10.541065 -32.905201
v 1.659858 -10.045209 -31.380049
v 0.155825 -10.349522 -31.469475
v 0.319700 -10.834499 -32.951912
v 1.564403 -9.108805 -33.397137
v 1.401611 -8.617782 -31.888126
v -0.102533 -8.921831 -31.976526
v 0.056250 -9.401981 -33.442829
vt 0.666667 0.666667
vt 0.666667 1.000000
vt 0.333334 1.000000
vt 0.666667 0.333333
vt 0.333334 0.333333
vt 0.333334 0.000000
vt 0.666667 0.000000
vt 1.000000 0.000000
vt 1.000000 0.333333
vt 0.333334 0.666667
vt 0.000000 0.333333
vt 0.000000 0.000000
vt 0.333333 0.666667
vt 0.000000 0.666667
vt 0.000000 0.333334
vt 0.333333 0.333334
vn 0.980316 0.192683 0.043058
vn -0.118680 0.313169 0.942253
vn -0.979721 -0.195387 -0.044382
vn 0.089411 -0.308794 -0.946917
vn 0.169377 -0.931625 0.321538
vn -0.169213 0.931076 -0.323211
vn 0.979723 0.195387 0.044342
vn -0.119478 0.313674 0.941984
vn -0.980314 -0.192692 -0.043058
vn 0.088629 -0.308287 -0.947156
vn 0.171071 -0.930676 0.323382
vn -0.171294 0.931283 -0.321513
usemtl WallBox
s off
f 93/177/133 94/178/133 90/179/133
f 94/180/134 95/181/134 91/182/134
f 96/183/135 92/184/135 91/185/135
f 93/177/136 89/186/136 92/181/136
f 89/187/137 90/188/137 91/182/137
f 96/189/138 95/190/138 94/191/138
f 89/186/139 93/177/139 90/179/139
f 90/183/140 94/180/140 91/182/140
f 95/180/141 96/183/141 91/185/141
f 96/180/142 93/177/142 92/181/142
f 92/192/143 89/187/143 91/182/143
f 93/192/144 96/189/144 94/191/144
g WallBoundingBox_Circle.002
v -21.849968 -0.038451 0.746773
v -23.562183 -0.044659 1.028384
v -23.764992 -0.635102 -0.376210
v -22.135582 -0.634559 -0.640836
v -21.969732 1.378682 0.162279
v -23.630566 1.374619 0.441807
v -23.835033 0.784061 -0.962487
v -22.257723 0.782417 -1.224764
vt 0.666667 0.666667
vt 0.666667 1.000000
vt 0.333334 1.000000
vt 0.666667 0.333333
vt 0.333334 0.333333
vt 0.333334 0.000000
vt 0.666667 0.000000
vt 1.000000 0.000000
vt 0.333334 0.666667
vt 0.000000 0.333333
vt 0.000000 0.000000
vt 0.000000 0.666667
vt 0.000000 0.333334
vt 0.333333 0.333334
vt 1.000000 0.333333
vt 0.333333 0.666667
vn 0.152351 0.383760 0.910779
vn -0.990064 0.009106 0.140325
vn -0.151589 -0.387750 -0.909215
vn 0.979198 -0.000931 -0.202908
vn 0.065619 -0.923225 0.378617
vn -0.065984 0.923194 -0.378629
vn 0.148225 0.387757 0.909766
vn -0.990258 0.009698 0.138906
vn -0.147902 -0.383844 -0.911476
vn 0.979369 0.001143 -0.202077
vn 0.062517 -0.921610 0.383049
vn -0.062747 0.921559 -0.383134
usemtl WallBox
s off
f 101/193/145 102/194/145 98/195/145
f 102/196/146 103/197/146 99/198/146
f 103/196/147 104/199/147 100/200/147
f 104/196/148 101/193/148 97/201/148
f 97/202/149 98/203/149 99/198/149
f 103/204/150 102/205/150 101/206/150
f 97/201/151 101/193/151 98/195/151
f 98/199/152 102/196/152 99/198/152
f 99/207/153 103/196/153 100/200/153
f 100/197/154 104/196/154 97/201/154
f 100/206/155 97/202/155 99/198/155
f 104/208/156 103/204/156 101/206/156
