# Blender v2.70 (sub 0) OBJ File: 'Tube.blend'
# www.blender.org
mtllib walls.mtl
g wall.001_Cube.003
v 187.624908 -5.240797 -8.933180
v 187.290070 -5.240797 -12.241580
v 190.598480 -5.240797 -12.576418
v 190.933319 -5.240797 -9.268018
v 187.624908 -2.028423 -8.933180
v 187.290070 -2.028423 -12.241580
v 190.598480 -2.028423 -12.576418
v 190.933319 -2.028423 -9.268018
vt 0.333333 0.666667
vt 0.333333 0.333333
vt 0.666667 0.333333
vt 0.000000 0.333333
vt 0.000000 0.000000
vt 0.333333 0.000000
vt 0.666667 0.000000
vt 0.333333 1.000000
vt 0.666667 0.666667
vt 1.000000 0.666667
vt 1.000000 1.000000
vt 0.000000 0.666667
vt 0.666667 1.000000
vn -0.994917 0.000000 0.100694
vn -0.100694 0.000000 -0.994917
vn 0.994917 0.000000 -0.100694
vn 0.100694 0.000000 0.994917
vn 0.000000 -1.000000 0.000000
vn 0.000000 1.000000 0.000000
vn -0.100693 0.000000 -0.994917
vn 0.100693 0.000000 0.994918
usemtl None
s off
f 6/1/1 2/2/1 1/3/1
f 7/4/2 3/2/2 2/1/2
f 8/5/3 4/6/3 3/2/3
f 5/6/4 1/7/4 4/3/4
f 2/8/5 3/1/5 4/9/5
f 8/9/6 7/10/6 6/11/6
f 5/9/1 6/1/1 1/3/1
f 6/12/7 7/4/7 2/1/7
f 7/4/3 8/5/3 3/2/3
f 8/2/8 5/6/8 4/3/8
f 1/13/5 2/8/5 4/9/5
f 5/13/6 8/9/6 6/11/6
g wall_Cube.001
v 202.777481 -5.240797 67.465187
v 202.442642 -5.240797 64.156792
v 205.751053 -5.240797 63.821949
v 206.085892 -5.240797 67.130348
v 202.777481 -2.028423 67.465187
v 202.442642 -2.028423 64.156792
v 205.751053 -2.028423 63.821949
v 206.085892 -2.028423 67.130348
vt 0.333333 0.666667
vt 0.333333 0.333333
vt 0.666667 0.333333
vt 0.000000 0.333333
vt 0.000000 0.000000
vt 0.333333 0.000000
vt 0.666667 0.000000
vt 0.666667 1.000000
vt 0.333333 1.000000
vt 1.000000 0.666667
vt 1.000000 1.000000
vt 0.666667 0.666667
vt 0.000000 0.666667
vn -0.994917 0.000000 0.100694
vn -0.100696 0.000000 -0.994917
vn 0.994917 0.000000 -0.100694
vn 0.100696 0.000000 0.994917
vn 0.000000 -1.000000 0.000000
vn 0.000000 1.000000 0.000000
vn -0.100693 0.000000 -0.994917
vn 0.100693 0.000000 0.994917
usemtl None
s off
f 14/14/9 10/15/9 9/16/9
f 15/17/10 11/15/10 10/14/10
f 16/18/11 12/19/11 11/15/11
f 13/19/12 9/20/12 12/16/12
f 9/21/13 10/22/13 11/14/13
f 15/23/14 14/24/14 13/21/14
f 13/25/9 14/14/9 9/16/9
f 14/26/15 15/17/15 10/14/15
f 15/17/11 16/18/11 11/15/11
f 16/15/16 13/19/16 12/16/16
f 12/25/13 9/21/13 11/14/13
f 16/25/14 15/23/14 13/21/14
